<svg xmlns="http://www.w3.org/2000/svg" viewBox="0 0 48 32" width="48" height="32"><rect width="48" height="32" rx="2" fill="#fff"/><path d="M12.9 8.6h4.3c3.8 0 5.4 1.9 5.2 4.7-.2 2.1-1.6 3.3-3.8 3.3h-2l-.9 5.7h-2.6l1.8-13.7zm2.7 6.1h1.1c1.4 0 2.2-.6 2.3-1.8 0-1.1-.7-1.8-1.9-1.8h-1l-.5 3.6z" fill="#003087"/><path d="M22.2 8.6h4.3c3.8 0 5.4 1.9 5.2 4.7-.2 2.1-1.6 3.3-3.8 3.3h-2l-.9 5.7h-2.6l1.8-13.7zm2.7 6.1h1.1c1.4 0 2.2-.6 2.3-1.8 0-1.1-.7-1.8-1.9-1.8h-1l-.5 3.6z" fill="#003087"/><path d="M31.2 8.6h2.7l-4.2 13.7h-2.6l1.5-8.8-2.6-4.9h2.8l1.4 3.7 1-3.7z" fill="#003087"/></svg>
