<svg xmlns="http://www.w3.org/2000/svg" viewBox="0 0 48 32" width="48" height="32"><rect width="48" height="32" rx="2" fill="#fff"/><path d="M19.1 6.5h-2.9c-.6 0-1 .4-1.3 1L11.2 26h3l.6-3.3h4l.4 3.3h2.6L19.1 6.5zM15.4 19.8l1.3-8.2.8 8.2h-2.1zm11.2-13.3H24L20 26h2.7l.6-2.9h3.3c3.6 0 6-1.8 6-5.8 0-4.7-3.9-10.8-6-10.8zM26 19.3l.6-2.9c.2-.9 1.5-1.1 2.1-1.1s.9.3.9 1c0 1.9-2.3 3-3.6 3zm11.7-5.9c-.1-2.4 1.7-4 3.9-4 1.2 0 2.1.2 2.7.5L45 7.6c-.7-.4-1.9-.7-3.4-.7-4.1 0-7 2.2-7.1 5.3 0 4.2 5.9 4.6 5.9 7 0 .6-.9 1.1-2.1 1.1-1.4 0-2.5-.3-3.3-.6l-.6 2.6c.9.4 2.4.7 4 .7 4.2 0 7-2.1 7.1-5.3.1-4.2-6-4.5-6-6.8zm-19-4.8L15.3 26h2.8l1.7-8.1 3.2-11.4h-2.9c-1 0-1.8.6-2.2 1.3L17.9 8.2z" fill="#1434CB"/></svg>
